<svg xmlns="http://www.w3.org/2000/svg" xmlns:xlink="http://www.w3.org/1999/xlink" id="Livello_1" x="0px" y="0px" viewBox="0 0 612.94 158.7" style="enable-background:new 0 0 612.94 158.7;" xml:space="preserve"> <style type="text/css"> .st0{fill:#FCEE21;} .st1{fill:#1D1D1B;} </style> <g> <path class="st1" d="M2.33,158.29c1.21-2.14,2.63-4.79,4.26-7.95l4.6-8.82c1.43-2.72,2.62-5.08,3.56-7.07 c1.51,0.02,2.58,0.03,3.21,0.03c1.11,0,2.19-0.01,3.25-0.03l2.5,7.14l5.43,14.77l0.75,1.92l-2.62-0.03c-0.6,0-1.62,0.01-3.05,0.03 c-0.28-1.04-0.72-2.43-1.32-4.19c-0.6-1.76-1.11-3.18-1.53-4.28h-9.19c-1.36,2.77-2.69,5.59-3.98,8.47l-2.85-0.03 C4.82,158.25,3.81,158.26,2.33,158.29z M13.73,146.18h6.69l-2.75-8.08l-1.41,2.94L13.73,146.18z"></path> <path class="st1" d="M33.12,158.29l0.51-6.69l0.37-7.74l0.23-7.04v-2.38c2.88,0.02,5.87,0.03,8.99,0.03l3.35-0.02l5.05-0.02 l-0.21,3.77l-1.66-0.09c-0.45-0.02-1.08-0.04-1.89-0.05s-1.62-0.02-2.46-0.02c-1.82,0-2.99,0-3.52,0.01 c-0.53,0.01-1.33,0.03-2.4,0.06l-0.28,6.2c1.6,0.03,3.2,0.05,4.82,0.05c1.12,0,3.01-0.03,5.66-0.1c-0.09,1.06-0.17,2.33-0.24,3.81 c-3.11-0.03-4.89-0.05-5.34-0.05c-1.37,0-3.08,0.03-5.13,0.1l-0.28,6.53l1.92,0.02c0.56,0,1.84-0.01,3.84-0.03l3.79-0.07l2.53-0.12 c-0.12,1.35-0.2,2.63-0.24,3.82c-3.03-0.02-5.76-0.03-8.19-0.03l-5.75,0.02L33.12,158.29z"></path> <path class="st1" d="M55.67,158.29c0.35-3.47,0.61-7.46,0.79-11.96c0.18-4.51,0.26-8.46,0.26-11.88c1.4,0.02,2.57,0.03,3.51,0.03 c1.01,0,2-0.02,2.98-0.05c0.97-0.03,2-0.05,3.08-0.05c1.35,0,2.56,0.08,3.62,0.23c1.07,0.15,2.01,0.5,2.84,1.05 c0.83,0.55,1.44,1.21,1.84,1.99s0.6,1.69,0.6,2.72c0,0.65-0.08,1.27-0.23,1.86c-0.15,0.59-0.38,1.14-0.67,1.66 c-0.3,0.52-0.65,0.97-1.06,1.36c-0.41,0.39-0.81,0.7-1.21,0.93c-0.4,0.23-0.86,0.42-1.37,0.58s-1.2,0.36-2.06,0.59l1.19,2.31 c0.38,0.73,1.11,2.05,2.18,3.95l1.76,3.09c0.09,0.16,0.37,0.69,0.84,1.59c-1.42-0.02-2.36-0.03-2.82-0.03 c-0.56,0-1.55,0.01-2.96,0.03l-1.94-4.65c-0.34-0.71-0.74-1.55-1.22-2.51l-2.11-4.24c-0.21-0.4-0.5-0.99-0.87-1.78 c0.78,0.14,1.49,0.21,2.13,0.21c1,0,1.92-0.16,2.74-0.49c0.83-0.33,1.46-0.83,1.91-1.51c0.44-0.68,0.66-1.42,0.66-2.23 c0-0.49-0.1-0.94-0.29-1.36c-0.19-0.42-0.52-0.77-0.97-1.07c-0.45-0.29-1-0.48-1.62-0.56s-1.26-0.12-1.89-0.12 c-0.35,0-0.83,0.01-1.43,0.02s-1.35,0.02-2.24,0.02l-0.31,7.18l-0.33,13.1l-2.71-0.03C57.88,158.25,56.99,158.26,55.67,158.29z"></path> <path class="st1" d="M92.53,134.03c1.73,0,3.4,0.24,4.99,0.72c1.59,0.48,3.01,1.26,4.24,2.33c1.23,1.08,2.17,2.33,2.79,3.76 c0.63,1.43,0.94,3.1,0.94,5.01c0,1.79-0.3,3.51-0.89,5.14c-0.59,1.64-1.51,3.04-2.76,4.23c-1.25,1.18-2.76,2.06-4.55,2.63 c-1.79,0.57-3.66,0.86-5.63,0.86c-1.86,0-3.65-0.26-5.37-0.79c-1.72-0.52-3.2-1.34-4.44-2.46c-1.24-1.12-2.13-2.4-2.66-3.85 c-0.54-1.45-0.8-3.02-0.8-4.71c0-1.85,0.33-3.62,1-5.31c0.67-1.69,1.65-3.09,2.95-4.19c1.3-1.11,2.82-1.94,4.56-2.51 C88.66,134.31,90.53,134.03,92.53,134.03z M92.25,137.75c-1.76,0-3.29,0.41-4.59,1.21c-1.3,0.81-2.28,1.92-2.94,3.32 c-0.66,1.4-0.99,2.92-0.99,4.55c0,1.51,0.32,2.91,0.95,4.18c0.63,1.28,1.61,2.25,2.93,2.92c1.32,0.67,2.74,1,4.26,1 c1.15,0,2.25-0.2,3.3-0.59c1.05-0.4,1.95-1,2.72-1.81c0.76-0.81,1.34-1.78,1.72-2.93c0.38-1.14,0.58-2.33,0.58-3.56 c0-1.15-0.17-2.26-0.52-3.32s-0.88-1.97-1.6-2.73c-0.72-0.76-1.59-1.33-2.61-1.7C94.44,137.93,93.37,137.75,92.25,137.75z"></path> <path class="st1" d="M138.7,153.92c-0.26,1.36-0.48,2.75-0.66,4.16c-1.33,0.23-2.54,0.4-3.65,0.49c-1.11,0.09-2.05,0.14-2.85,0.14 c-1.75,0-3.41-0.24-5-0.73c-1.59-0.49-3.02-1.26-4.3-2.31c-1.27-1.05-2.2-2.33-2.77-3.83c-0.57-1.5-0.86-3.14-0.86-4.92 c0-1.93,0.34-3.72,1.03-5.36c0.69-1.64,1.67-3.03,2.96-4.16c1.29-1.13,2.81-1.97,4.57-2.52c1.76-0.55,3.59-0.83,5.5-0.83 c1.89,0,3.95,0.22,6.18,0.65c0.03,1.04,0.07,1.77,0.1,2.2l0.12,1.87c-1.32-0.35-2.41-0.59-3.28-0.72c-0.87-0.13-1.71-0.19-2.5-0.19 c-1.25,0-2.44,0.19-3.59,0.57c-1.15,0.38-2.16,0.98-3.04,1.81s-1.55,1.82-2.03,3c-0.47,1.17-0.71,2.39-0.71,3.66 c0,1.51,0.29,2.87,0.87,4.07c0.58,1.2,1.52,2.17,2.8,2.92c1.29,0.75,2.88,1.12,4.78,1.12C134.16,154.97,136.26,154.62,138.7,153.92 z"></path> <path class="st1" d="M143,158.29c0.35-3.5,0.62-7.41,0.83-11.71c0.21-4.3,0.33-8.34,0.36-12.13c1.19,0.02,2.18,0.03,2.97,0.03 c0.54,0,1.39-0.01,2.57-0.03c-0.15,2.1-0.3,4.48-0.43,7.16l-0.35,7c-0.11,2-0.18,3.99-0.23,5.97l3.01,0.03 c2.82,0,4.67-0.01,5.56-0.03c0.89-0.02,1.76-0.05,2.62-0.1c-0.1,1.14-0.2,2.4-0.28,3.79c-3.06-0.02-5.68-0.03-7.86-0.03l-5.5,0.02 L143,158.29z"></path> <path class="st1" d="M164.01,134.45c1.35,0.02,2.26,0.03,2.74,0.03c0.59,0,1.48-0.01,2.65-0.03l-0.82,14.09 c-0.01,0.16-0.02,0.34-0.02,0.52c0,1.57,0.22,2.75,0.67,3.55c0.45,0.79,1.11,1.37,1.97,1.73c0.87,0.36,1.86,0.54,2.98,0.54 c0.71,0,1.39-0.08,2.03-0.24c0.52-0.14,1-0.33,1.43-0.58c0.35-0.21,0.66-0.45,0.93-0.73c0.31-0.34,0.58-0.73,0.79-1.17 c0.22-0.43,0.38-0.92,0.49-1.47c0.15-0.83,0.29-2.26,0.42-4.31l0.37-6.08c0.08-1.77,0.15-3.72,0.19-5.85 c1.31,0.02,2.29,0.03,2.93,0.03l2.55-0.03l-0.54,8.42l-0.35,6.69c-0.1,1.56-0.27,2.72-0.49,3.49c-0.19,0.64-0.45,1.23-0.79,1.78 c-0.33,0.49-0.72,0.93-1.17,1.31c-0.58,0.5-1.26,0.93-2.04,1.29c-0.87,0.41-1.8,0.7-2.78,0.89c-1.35,0.26-2.74,0.38-4.17,0.38 c-1.47,0-2.84-0.13-4.12-0.4c-1.09-0.23-2.1-0.59-3.01-1.08s-1.64-1.04-2.17-1.64c-0.43-0.49-0.77-1.1-1.03-1.83 c-0.29-0.81-0.44-1.72-0.44-2.72c0-0.35,0.01-0.8,0.03-1.35c0.02-0.55,0.07-1.27,0.12-2.14l0.16-2.46c0.06-0.77,0.12-1.9,0.19-3.39 l0.18-3.79C163.94,136.85,163.98,135.71,164.01,134.45z"></path> <path class="st1" d="M190.65,158.29c0.22-2.47,0.37-4.49,0.46-6.06c0.08-1.57,0.19-4.26,0.32-8.05c0.13-3.8,0.19-6.4,0.19-7.82 c0-0.43-0.01-1.07-0.02-1.9c1.47,0.02,2.68,0.03,3.65,0.03c0.98,0,2.18-0.02,3.61-0.05c1.43-0.03,2.61-0.05,3.54-0.05 c1.3,0,2.28,0.06,2.94,0.17c0.66,0.11,1.24,0.28,1.75,0.5c0.51,0.22,0.94,0.49,1.29,0.81c0.35,0.32,0.65,0.7,0.9,1.14 c0.25,0.44,0.44,0.91,0.56,1.41c0.12,0.51,0.18,1.02,0.18,1.55c0,0.65-0.08,1.27-0.24,1.86s-0.38,1.12-0.68,1.59 c-0.3,0.47-0.64,0.87-1.04,1.21c-0.4,0.33-0.77,0.59-1.14,0.78c-0.36,0.19-0.84,0.38-1.45,0.59c0.55,0.12,0.98,0.23,1.31,0.34 c0.33,0.11,0.68,0.28,1.05,0.51c0.37,0.23,0.72,0.52,1.06,0.87c0.33,0.36,0.6,0.73,0.79,1.13c0.2,0.4,0.35,0.84,0.46,1.32 c0.11,0.48,0.17,0.99,0.17,1.51c0,1.12-0.24,2.14-0.72,3.07s-1.15,1.67-2,2.21c-0.85,0.54-1.8,0.9-2.86,1.08s-3.29,0.27-6.71,0.27 l-4.23-0.02L190.65,158.29z M195.94,154.88h3.96c0.8,0,1.43-0.03,1.88-0.1c0.45-0.06,0.88-0.18,1.28-0.34 c0.41-0.16,0.73-0.34,0.96-0.53c0.23-0.19,0.44-0.43,0.62-0.72c0.18-0.29,0.32-0.62,0.43-0.99c0.1-0.37,0.16-0.75,0.16-1.15 c0-0.54-0.09-1.01-0.28-1.42c-0.19-0.41-0.46-0.76-0.83-1.06c-0.37-0.3-0.79-0.51-1.28-0.65c-0.49-0.13-1.23-0.2-2.24-0.2h-4.4 L195.94,154.88z M196.37,144.33h2.8c1.2,0,2-0.03,2.41-0.09c0.41-0.06,0.84-0.17,1.3-0.34c0.45-0.17,0.84-0.43,1.15-0.79 c0.31-0.35,0.54-0.74,0.69-1.17s0.22-0.86,0.22-1.3c0-0.43-0.08-0.84-0.24-1.22c-0.16-0.38-0.4-0.7-0.72-0.95 c-0.32-0.25-0.72-0.43-1.18-0.54c-0.46-0.11-1.13-0.17-2.01-0.17h-4.18L196.37,144.33z"></path> </g> <g> <ellipse class="st0" cx="546.22" cy="78.01" rx="37.37" ry="37.36"></ellipse> <path d="M609.94,85.64c-5.01-0.97-12.88-5.11-18.17-6.27c-7.54-1.65-14.09-0.55-19.37,5.24c-3.69,4.05-7.07,8.37-10.57,12.59 c-2.46,2.97-4.66,6.19-7.38,8.9c-7.31,7.28-9.89,7.01-16.85-2.08c-0.43,1.24-0.8,2.33-1.49,4.36c-2.49-11.53-4.88-21.39-6.69-31.36 c-2.33-12.81-10.1-20.77-21.44-26.11c-18.02-8.47-37.11-12.97-56.66-15.89c-16.59-2.48-31.5-8.16-44.78-18.74 c-3.5-2.79-9.39-7.22-10.49-11.59c0.19-1.71,1.8-2.77,8.87-3.61c24.58-2.91,42.68,0.54,63.14,4.8c10.64,2.22,21.26,6.09,30.72,11.2 c20.85,11.26,30.67,31.7,35.48,54.34c0.72,3.37,1.19,6.8,1.83,10.19c0.07,0.35,0.45,0.65,0.9,1.27c4.19-3,8.19-6.33,12.6-8.95 c10.89-6.48,21.9-7.42,34.64-3.42c9.58,3.01,16.82,7.19,24.34,11.56C610.91,84.26,610.23,85.04,609.94,85.64z"></path> </g> <g> <path d="M8.39,70.91c0.74-3.88,1.21-6.56,1.41-8.03c0.2-1.47,0.51-3.77,0.94-6.91c11.27-2.47,20.96-3.71,29.06-3.71 c4.62,0,8.85,0.52,12.68,1.56c3.84,1.04,6.83,2.72,8.98,5.03c2.15,2.31,3.23,5.63,3.23,9.94c0,2.2-0.29,7.14-0.88,14.82 c-0.59,7.69-1.03,17.76-1.35,30.23c-3.84-0.08-7.65-0.12-11.45-0.12c-3.68,0-7.6,0.04-11.75,0.12c0.53-4.31,1.13-13.21,1.78-26.7 c-1.48,0.71-2.64,1.22-3.48,1.53c-0.84,0.31-2.31,0.78-4.42,1.41c-2.11,0.63-3.76,1.16-4.95,1.59c-1.19,0.43-2.23,0.98-3.1,1.65 c-0.88,0.67-1.5,1.35-1.87,2.06c-0.37,0.71-0.56,1.49-0.56,2.35c0,1.33,0.53,2.47,1.58,3.41c1.06,0.94,2.74,1.41,5.05,1.41 c0.82,0,1.7-0.07,2.64-0.21c0.94-0.14,2.23-0.48,3.87-1.03c-1.14,3.02-2.49,7.43-4.05,13.23c-3.37,0.55-6.55,0.82-9.57,0.82 c-4.85,0-8.89-0.68-12.12-2.03c-3.23-1.35-5.71-3.54-7.45-6.56C0.87,103.77,0,100.75,0,97.73c0-1.84,0.32-3.65,0.97-5.41 c0.65-1.76,1.65-3.49,3.02-5.18c1.37-1.69,2.97-3.13,4.81-4.32c1.84-1.2,4.35-2.32,7.54-3.38c3.19-1.06,7.23-2.06,12.12-3 c2.03-0.39,3.9-0.81,5.6-1.26c1.7-0.45,2.91-0.84,3.64-1.18c0.72-0.33,1.31-0.73,1.76-1.18c0.45-0.45,0.77-0.92,0.97-1.41 c0.2-0.49,0.29-1.01,0.29-1.56c0-1.49-0.63-2.64-1.88-3.44c-1.25-0.8-3.09-1.21-5.51-1.21C26.6,65.2,18.29,67.11,8.39,70.91z"></path> <path d="M75.54,113.84l1.05-12.65l2.27-43.97l0.64-23.66c5.45,0.08,9.54,0.12,12.28,0.12c3.56,0,7.5-0.04,11.81-0.12l-1.34,18.06 l-2.16,44.46l-0.47,17.76c-4.19-0.04-7.97-0.06-11.34-0.06L75.54,113.84z"></path> <path d="M112.64,113.84c1.09-12.35,2.05-26.74,2.87-43.17c0.82-16.43,1.23-28.8,1.23-37.11c4.54,0.08,8.79,0.12,12.74,0.12 c3.88,0,7.67-0.04,11.39-0.12c-0.85,6.12-1.48,12.84-1.87,20.17c3.56-0.59,6.3-0.98,8.22-1.18c1.92-0.2,3.81-0.29,5.69-0.29 c6.02,0,11.18,0.95,15.46,2.85c4.28,1.9,7.76,5.11,10.44,9.62c2.68,4.51,4.02,10.02,4.02,16.53c0,6.51-1.27,12.5-3.82,17.97 c-2.54,5.47-5.95,9.53-10.21,12.17c-4.26,2.65-9.23,3.97-14.91,3.97c-2.11,0-4.13-0.22-6.05-0.65c-1.92-0.43-3.66-1.07-5.22-1.91 c-1.57-0.84-2.88-1.74-3.93-2.68c-1.06-0.94-2.27-2.21-3.64-3.82l-0.21,7.53c-4.19-0.08-7.7-0.12-10.52-0.12 C122.02,113.73,118.12,113.76,112.64,113.84z M137.36,70.26c-0.28,6.51-0.42,10.49-0.42,11.94c0,3.69,0.32,6.61,0.97,8.76 c0.65,2.16,1.88,3.88,3.7,5.18c1.82,1.29,3.87,1.94,6.14,1.94c2.35,0,4.4-0.65,6.17-1.94c1.76-1.29,3.1-3.18,4.02-5.68 c0.92-2.49,1.38-5.11,1.38-7.85c0-4.12-1.11-7.42-3.32-9.91c-2.22-2.49-5.4-3.73-9.56-3.73C143.83,68.97,140.81,69.4,137.36,70.26z "></path> <path d="M197.04,70.91c0.74-3.88,1.21-6.56,1.41-8.03c0.2-1.47,0.51-3.77,0.94-6.91c11.27-2.47,20.96-3.71,29.06-3.71 c4.62,0,8.84,0.52,12.68,1.56c3.84,1.04,6.83,2.72,8.98,5.03c2.15,2.31,3.23,5.63,3.23,9.94c0,2.2-0.29,7.14-0.88,14.82 c-0.59,7.69-1.03,17.76-1.35,30.23c-3.84-0.08-7.65-0.12-11.45-0.12c-3.68,0-7.6,0.04-11.75,0.12c0.53-4.31,1.13-13.21,1.78-26.7 c-1.48,0.71-2.64,1.22-3.48,1.53c-0.84,0.31-2.31,0.78-4.42,1.41c-2.11,0.63-3.76,1.16-4.95,1.59c-1.19,0.43-2.23,0.98-3.1,1.65 c-0.88,0.67-1.5,1.35-1.87,2.06c-0.37,0.71-0.56,1.49-0.56,2.35c0,1.33,0.53,2.47,1.58,3.41c1.06,0.94,2.74,1.41,5.05,1.41 c0.82,0,1.7-0.07,2.64-0.21c0.94-0.14,2.23-0.48,3.87-1.03c-1.14,3.02-2.49,7.43-4.05,13.23c-3.37,0.55-6.55,0.82-9.57,0.82 c-4.85,0-8.89-0.68-12.12-2.03c-3.23-1.35-5.71-3.54-7.45-6.56c-1.74-3.02-2.61-6.04-2.61-9.06c0-1.84,0.32-3.65,0.97-5.41 c0.65-1.76,1.65-3.49,3.02-5.18c1.37-1.69,2.97-3.13,4.81-4.32c1.84-1.2,4.35-2.32,7.54-3.38c3.19-1.06,7.23-2.06,12.12-3 c2.03-0.39,3.9-0.81,5.6-1.26c1.7-0.45,2.91-0.84,3.64-1.18c0.72-0.33,1.31-0.73,1.76-1.18c0.45-0.45,0.77-0.92,0.97-1.41 c0.2-0.49,0.29-1.01,0.29-1.56c0-1.49-0.63-2.64-1.88-3.44c-1.25-0.8-3.09-1.21-5.51-1.21C215.25,65.2,206.94,67.11,197.04,70.91z"></path> <path d="M307.98,96.55c-0.7,3.29-1.31,6.51-1.82,9.65l-1.29,7.18c-3.87,0.86-6.9,1.41-9.07,1.65c-2.17,0.23-4.28,0.35-6.31,0.35 c-3.33,0-6.28-0.28-8.86-0.85c-2.58-0.57-4.74-1.61-6.46-3.12c-1.72-1.51-2.9-3.24-3.52-5.21c-0.63-1.96-0.94-4.04-0.94-6.23 c0-0.39,0.02-1.09,0.06-2.09c0.04-1,0.17-3.22,0.41-6.68l1.28-20.35h-9.15c0.19-2.71,0.37-6.27,0.53-10.7l0.18-5.47h9.73 c0.23-1.8,0.52-5.74,0.88-11.82l10.05-2.06c1.84-0.35,5.76-1.25,11.75-2.71c-0.28,5.14-0.47,10.67-0.59,16.58h13.38 c-0.31,8.16-0.47,13.55-0.47,16.17h-13.5l-0.71,14.7c-0.08,2.2-0.12,3.61-0.12,4.23c0,1.88,0.21,3.45,0.62,4.71 c0.41,1.26,1.14,2.16,2.17,2.71c1.04,0.55,2.18,0.82,3.44,0.82c0.94,0,1.92-0.07,2.94-0.21C303.6,97.68,305.4,97.26,307.98,96.55z"></path> <path d="M315.44,113.84l1.82-26.11l0.59-15c0.04-2.71,0.06-5.47,0.06-8.29c0-2.86-0.04-6.41-0.12-10.65 c4.74,0.08,8.49,0.12,11.27,0.12c3.25,0,6.99-0.04,11.21-0.12l-0.24,6.65c1.53-1.73,2.78-3.01,3.76-3.85 c0.98-0.84,2.1-1.61,3.35-2.29c1.25-0.69,2.56-1.2,3.93-1.53c1.37-0.33,2.8-0.5,4.29-0.5c1.41,0,2.98,0.2,4.7,0.59 c0.04,4.27,0.14,7.8,0.29,10.59l0.41,9.06c-2.15-0.63-4.16-0.94-6.04-0.94c-2.35,0-4.37,0.34-6.07,1.03 c-1.7,0.69-3.21,1.73-4.52,3.12c-1.31,1.39-2.36,3.13-3.14,5.21c-0.78,2.08-1.33,5.37-1.64,9.88c-0.31,4.51-0.47,9.67-0.47,15.47 c0,2.04,0.08,4.57,0.24,7.59c-3.8-0.08-7.62-0.12-11.45-0.12C323.85,113.73,319.78,113.76,315.44,113.84z"></path> <path d="M402.07,52.27c4.85,0,9.52,0.75,14,2.23c4.48,1.49,8.27,3.64,11.36,6.44c3.09,2.8,5.37,6.08,6.84,9.82 c1.47,3.74,2.2,7.77,2.2,12.09c0,4.2-0.66,8.19-1.97,11.97c-1.31,3.78-3.53,7.33-6.66,10.65c-3.13,3.31-7.11,5.79-11.94,7.44 c-4.83,1.65-9.95,2.47-15.35,2.47c-4.97,0-9.74-0.73-14.32-2.18c-4.58-1.45-8.4-3.57-11.47-6.35c-3.07-2.78-5.38-6.12-6.93-10 c-1.55-3.88-2.32-7.96-2.32-12.23c0-4.27,0.75-8.35,2.26-12.23c1.51-3.88,3.89-7.37,7.16-10.47c3.27-3.1,7.31-5.48,12.12-7.15 C391.86,53.1,396.87,52.27,402.07,52.27z M401.66,69.56c-2.5,0-4.74,0.65-6.69,1.94c-1.96,1.29-3.43,3.19-4.43,5.68 c-1,2.49-1.5,5.21-1.5,8.15c0,4.31,1.08,7.62,3.23,9.91c2.15,2.29,4.85,3.44,8.1,3.44c2.46,0,4.68-0.66,6.63-1.97 c1.96-1.31,3.43-3.25,4.43-5.82c1-2.57,1.5-5.32,1.5-8.26c0-2.43-0.39-4.63-1.17-6.59c-0.78-1.96-2.06-3.53-3.84-4.71 C406.13,70.14,404.05,69.56,401.66,69.56z"></path> <path d="M444.69,112.73c-0.16-1.73-0.31-3.54-0.47-5.44c-0.16-1.9-0.41-4.52-0.76-7.85l-0.47-4.23c3.79,1.49,7.05,2.6,9.78,3.32 c2.73,0.73,5.25,1.09,7.55,1.09c1.91,0,3.47-0.18,4.66-0.53c1.19-0.35,2.06-0.86,2.61-1.53c0.55-0.67,0.82-1.35,0.82-2.06 c0-0.63-0.21-1.24-0.61-1.85c-0.41-0.61-1.34-1.44-2.78-2.5c-3.2-2.35-6.02-4.49-8.46-6.41c-2.44-1.92-4.27-3.63-5.5-5.12 s-2.16-3.1-2.81-4.82c-0.64-1.72-0.97-3.51-0.97-5.35c0-3.25,0.93-6.29,2.79-9.12c1.86-2.82,4.6-4.87,8.22-6.15 c3.62-1.27,8.03-1.91,13.24-1.91c5.44,0,12.38,0.71,20.84,2.12l0.94,16.47c-4.74-1.88-9.29-2.82-13.68-2.82 c-3.09,0-5.33,0.32-6.72,0.96c-1.39,0.64-2.08,1.61-2.08,2.93c0,0.43,0.08,0.84,0.24,1.24c0.16,0.39,0.44,0.8,0.85,1.24 c0.41,0.43,0.92,0.87,1.53,1.32c0.61,0.45,2.08,1.5,4.43,3.15c2.35,1.65,4.19,3,5.52,4.06c2.19,1.73,3.86,3.32,5.02,4.79 c1.15,1.47,2.03,3.04,2.64,4.7c0.61,1.67,0.91,3.42,0.91,5.26c0,2.78-0.67,5.34-2.02,7.67c-1.35,2.33-3.39,4.28-6.1,5.85 c-2.72,1.57-5.66,2.66-8.83,3.26c-3.17,0.61-6.44,0.91-9.8,0.91c-2.27,0-5.12-0.2-8.54-0.59 C453.21,114.39,449.22,113.71,444.69,112.73z"></path> </g> </svg>